<svg version="1.1" id="Layer_1" xmlns="http://www.w3.org/2000/svg" xmlns:xlink="http://www.w3.org/1999/xlink" x="0px" y="0px"
	 width="100%" viewBox="0 0 400 400" enable-background="new 0 0 400 400" xml:space="preserve">
<path fill="#000000" opacity="1.000000" stroke="none" 
	d="
M262.853638,279.002960 
	C250.964050,286.585358 238.965622,283.188354 233.021896,270.874847 
	C223.649063,251.457382 229.497513,226.332047 246.966782,212.781708 
	C250.613403,209.953125 251.709381,207.012329 251.682068,202.670929 
	C251.532181,178.841080 251.574799,155.009552 251.658188,131.178970 
	C251.679779,125.008453 256.477966,120.043297 262.089783,119.937408 
	C267.600494,119.833427 272.293060,124.303291 272.931396,130.352768 
	C273.088135,131.838089 273.022552,133.349045 273.024017,134.848236 
	C273.045349,156.679291 273.177155,178.511398 272.980042,200.340515 
	C272.940186,204.755295 274.117584,207.068497 278.630920,207.931381 
	C283.392883,208.841827 287.223633,212.101837 291.855530,214.446167 
	C293.236633,203.133453 292.465088,192.169632 292.519684,181.242935 
	C292.671234,150.913422 292.588562,120.582787 292.621613,90.252617 
	C292.628845,83.586342 295.023163,80.063629 300.456635,78.496582 
	C306.092865,76.871063 311.928406,80.073853 313.174103,85.794907 
	C313.805664,88.695404 313.981415,91.743561 313.984314,94.725342 
	C314.037659,149.219666 314.074615,203.714111 314.023895,258.208405 
	C313.998779,285.196716 303.081024,305.938232 278.340912,318.122620 
	C243.173386,335.442505 199.659378,313.942444 191.715439,275.554199 
	C190.563660,269.988434 190.102478,264.346313 190.096710,258.692535 
	C190.060272,223.029633 190.013367,187.366135 190.202377,151.704071 
	C190.243958,143.862045 190.744415,136.018524 188.527908,128.411255 
	C183.333389,110.583015 166.904541,98.824417 148.247620,99.364281 
	C130.586212,99.875328 114.553726,112.945839 110.906990,130.744797 
	C107.411629,147.804901 113.335045,162.053543 126.473549,173.007217 
	C135.006134,180.120895 143.441132,178.744827 150.340561,169.978973 
	C156.625412,161.993958 158.789383,152.771957 157.781387,142.740585 
	C157.559647,140.533752 156.774918,138.510651 155.446594,136.759521 
	C152.716629,133.160599 149.026230,133.343719 146.428345,137.062881 
	C144.223740,140.218979 144.285278,144.013931 143.344879,147.522552 
	C142.358368,151.203171 140.189774,153.407806 136.263168,153.233856 
	C132.205826,153.054123 129.902786,150.616684 129.087540,146.779953 
	C126.971596,136.821823 135.621811,122.531998 145.402664,119.732224 
	C155.987656,116.702255 165.687027,122.142693 170.178513,133.629105 
	C177.784271,153.079849 171.428513,176.640900 154.814468,189.400665 
	C151.535202,191.919189 150.285294,194.556015 150.310333,198.615372 
	C150.461472,223.111908 150.353607,247.609940 150.412781,272.107269 
	C150.423538,276.563446 149.413605,280.409943 145.330154,282.779236 
	C137.863907,287.111298 129.198563,282.239563 129.000900,273.377014 
	C128.759430,262.550018 128.924118,251.713867 128.921600,240.881668 
	C128.918594,227.883011 128.766327,214.881317 129.015900,201.887421 
	C129.098572,197.582977 128.137421,195.014999 123.523819,194.115372 
	C118.748138,193.184143 114.834351,190.110489 110.373451,187.595505 
	C109.356979,190.988205 109.403809,194.248840 109.403069,197.505905 
	C109.394234,236.001785 109.423080,274.497772 109.339851,312.993500 
	C109.321762,321.361877 101.195923,326.593414 94.167488,322.969513 
	C91.367157,321.525665 89.393730,319.249298 88.767891,316.140717 
	C88.278885,313.711761 87.986191,311.198669 87.984581,308.722717 
	C87.948830,253.728409 87.929726,198.734024 88.000710,143.739761 
	C88.016350,131.619095 89.916405,119.870758 96.158165,109.168900 
	C109.590477,86.138382 135.345200,74.143341 161.146255,78.940704 
	C187.227890,83.790237 207.075333,104.319992 211.073227,130.902573 
	C211.812256,135.816467 211.835678,140.868149 211.844864,145.856857 
	C211.915070,184.019424 211.976685,222.182358 211.870911,260.344696 
	C211.832352,274.255096 216.670135,285.757172 227.724747,294.305115 
	C242.896744,306.036804 264.238647,305.113434 278.805359,292.314911 
	C292.742493,280.069550 296.158142,259.010406 286.824066,242.589050 
	C283.839905,237.339050 280.301819,232.518173 275.404877,228.842621 
	C266.940369,222.489288 258.167816,223.574448 251.735168,231.889572 
	C245.521622,239.921494 243.207718,249.094315 244.278198,259.124054 
	C244.450348,260.737000 244.954880,262.427612 245.739334,263.841797 
	C248.602371,269.003235 253.065414,268.932495 256.063507,263.891144 
	C257.576263,261.347351 257.595703,258.482208 258.259308,255.753036 
	C259.518219,250.575638 262.156891,248.303940 266.375824,248.732056 
	C270.563293,249.156967 273.374207,252.610718 273.118317,257.722534 
	C272.701233,266.055450 269.586853,273.233337 262.853638,279.002960 
z"/>
</svg>